<svg width="143" height="16" viewBox="0 0 143 16" fill="none" xmlns="http://www.w3.org/2000/svg">
<path d="M4.8999 8.09619H3.14941V12H0.952148V1.33594H4.91455C6.17432 1.33594 7.146 1.6167 7.82959 2.17822C8.51318 2.73975 8.85498 3.5332 8.85498 4.55859C8.85498 5.28613 8.69629 5.89404 8.37891 6.38232C8.06641 6.86572 7.59033 7.25146 6.95068 7.53955L9.25781 11.8975V12H6.89941L4.8999 8.09619ZM3.14941 6.31641H4.92188C5.47363 6.31641 5.90088 6.17725 6.20361 5.89893C6.50635 5.61572 6.65771 5.22754 6.65771 4.73438C6.65771 4.23145 6.51367 3.83594 6.22559 3.54785C5.94238 3.25977 5.50537 3.11572 4.91455 3.11572H3.14941V6.31641ZM14.0405 12.1465C12.8784 12.1465 11.9312 11.79 11.1987 11.0771C10.4712 10.3643 10.1074 9.41455 10.1074 8.22803V8.02295C10.1074 7.22705 10.2612 6.5166 10.5688 5.8916C10.8765 5.26172 11.311 4.77832 11.8726 4.44141C12.439 4.09961 13.0835 3.92871 13.8062 3.92871C14.8901 3.92871 15.7422 4.27051 16.3623 4.9541C16.9873 5.6377 17.2998 6.60693 17.2998 7.86182V8.72607H12.2534C12.3218 9.24365 12.5269 9.65869 12.8687 9.97119C13.2153 10.2837 13.6523 10.4399 14.1797 10.4399C14.9951 10.4399 15.6323 10.1445 16.0913 9.55371L17.1313 10.7183C16.814 11.1675 16.3843 11.519 15.8423 11.7729C15.3003 12.022 14.6997 12.1465 14.0405 12.1465ZM13.7988 5.64258C13.3789 5.64258 13.0371 5.78418 12.7734 6.06738C12.5146 6.35059 12.3486 6.75586 12.2754 7.2832H15.2197V7.11475C15.21 6.646 15.083 6.28467 14.8389 6.03076C14.5947 5.77197 14.248 5.64258 13.7988 5.64258ZM18.2007 7.979C18.2007 6.76318 18.4888 5.78418 19.0649 5.04199C19.646 4.2998 20.4272 3.92871 21.4087 3.92871C22.2778 3.92871 22.9541 4.22656 23.4375 4.82227L23.5254 4.0752H25.4443V11.7363C25.4443 12.4297 25.2856 13.0327 24.9683 13.5454C24.6558 14.0581 24.2139 14.4487 23.6426 14.7173C23.0713 14.9858 22.4023 15.1201 21.6357 15.1201C21.0547 15.1201 20.4883 15.0029 19.9365 14.7686C19.3848 14.5391 18.9673 14.2412 18.6841 13.875L19.6216 12.5859C20.1489 13.1768 20.7886 13.4722 21.5405 13.4722C22.1021 13.4722 22.5391 13.3208 22.8516 13.0181C23.1641 12.7202 23.3203 12.2954 23.3203 11.7437V11.3188C22.832 11.8706 22.1899 12.1465 21.394 12.1465C20.4419 12.1465 19.6704 11.7754 19.0796 11.0332C18.4937 10.2861 18.2007 9.29736 18.2007 8.06689V7.979ZM20.3174 8.13281C20.3174 8.85059 20.4614 9.41455 20.7495 9.82471C21.0376 10.23 21.4331 10.4326 21.936 10.4326C22.5806 10.4326 23.042 10.1909 23.3203 9.70752V6.375C23.0371 5.8916 22.5806 5.6499 21.9507 5.6499C21.4429 5.6499 21.0425 5.85742 20.7495 6.27246C20.4614 6.6875 20.3174 7.30762 20.3174 8.13281ZM29.3115 12H27.1875V4.0752H29.3115V12ZM27.063 2.02441C27.063 1.70703 27.168 1.4458 27.3779 1.24072C27.5928 1.03564 27.8833 0.933105 28.2495 0.933105C28.6108 0.933105 28.8989 1.03564 29.1138 1.24072C29.3286 1.4458 29.436 1.70703 29.436 2.02441C29.436 2.34668 29.3262 2.61035 29.1064 2.81543C28.8916 3.02051 28.606 3.12305 28.2495 3.12305C27.8931 3.12305 27.605 3.02051 27.3853 2.81543C27.1704 2.61035 27.063 2.34668 27.063 2.02441ZM35.354 9.81006C35.354 9.55127 35.2246 9.34863 34.9658 9.20215C34.7119 9.05078 34.3018 8.9165 33.7354 8.79932C31.8506 8.40381 30.9082 7.60303 30.9082 6.39697C30.9082 5.69385 31.1987 5.10791 31.7798 4.63916C32.3657 4.16553 33.1299 3.92871 34.0723 3.92871C35.0781 3.92871 35.8813 4.16553 36.4819 4.63916C37.0874 5.11279 37.3901 5.72803 37.3901 6.48486H35.2734C35.2734 6.18213 35.1758 5.93311 34.9805 5.73779C34.7852 5.5376 34.48 5.4375 34.0649 5.4375C33.7085 5.4375 33.4326 5.51807 33.2373 5.6792C33.042 5.84033 32.9443 6.04541 32.9443 6.29443C32.9443 6.52881 33.0542 6.71924 33.2739 6.86572C33.4985 7.00732 33.8745 7.13184 34.4019 7.23926C34.9292 7.3418 35.3735 7.45898 35.7349 7.59082C36.853 8.00098 37.4121 8.71143 37.4121 9.72217C37.4121 10.4448 37.1021 11.0308 36.4819 11.48C35.8618 11.9243 35.061 12.1465 34.0796 12.1465C33.4155 12.1465 32.8247 12.0293 32.3071 11.7949C31.7944 11.5557 31.3916 11.231 31.0986 10.8208C30.8057 10.4058 30.6592 9.95898 30.6592 9.48047H32.666C32.6855 9.85645 32.8247 10.1445 33.0835 10.3447C33.3423 10.5449 33.689 10.645 34.1235 10.645C34.5288 10.645 34.834 10.5693 35.0391 10.418C35.249 10.2617 35.354 10.0591 35.354 9.81006ZM41.3159 2.12695V4.0752H42.6709V5.62793H41.3159V9.58301C41.3159 9.87598 41.3721 10.0859 41.4844 10.2129C41.5967 10.3398 41.8115 10.4033 42.1289 10.4033C42.3633 10.4033 42.5708 10.3862 42.7515 10.3521V11.9561C42.3364 12.083 41.9092 12.1465 41.4697 12.1465C39.9854 12.1465 39.2285 11.397 39.1992 9.89795V5.62793H38.042V4.0752H39.1992V2.12695H41.3159ZM48.3032 6.06006C48.0151 6.021 47.7612 6.00146 47.5415 6.00146C46.7407 6.00146 46.2158 6.27246 45.9668 6.81445V12H43.8501V4.0752H45.8496L45.9082 5.02002C46.333 4.29248 46.9214 3.92871 47.6733 3.92871C47.9077 3.92871 48.1274 3.96045 48.3325 4.02393L48.3032 6.06006ZM53.7012 12C53.6035 11.8096 53.5327 11.5728 53.4888 11.2896C52.9761 11.8608 52.3096 12.1465 51.4893 12.1465C50.7129 12.1465 50.0684 11.9219 49.5557 11.4727C49.0479 11.0234 48.7939 10.457 48.7939 9.77344C48.7939 8.93359 49.104 8.28906 49.7241 7.83984C50.3491 7.39062 51.25 7.16357 52.4268 7.15869H53.4009V6.70459C53.4009 6.33838 53.3057 6.04541 53.1152 5.82568C52.9297 5.60596 52.6343 5.49609 52.229 5.49609C51.8726 5.49609 51.5918 5.58154 51.3867 5.75244C51.1865 5.92334 51.0864 6.15771 51.0864 6.45557H48.9697C48.9697 5.99658 49.1113 5.57178 49.3945 5.18115C49.6777 4.79053 50.0781 4.48535 50.5957 4.26562C51.1133 4.04102 51.6943 3.92871 52.3389 3.92871C53.3154 3.92871 54.0894 4.17529 54.6606 4.66846C55.2368 5.15674 55.5249 5.84521 55.5249 6.73389V10.1689C55.5298 10.9209 55.6348 11.4897 55.8398 11.8755V12H53.7012ZM51.9507 10.5278C52.2632 10.5278 52.5513 10.4595 52.8149 10.3228C53.0786 10.1812 53.2739 9.99316 53.4009 9.75879V8.39648H52.6099C51.5503 8.39648 50.9863 8.7627 50.918 9.49512L50.9106 9.61963C50.9106 9.8833 51.0034 10.1006 51.189 10.2715C51.3745 10.4424 51.6284 10.5278 51.9507 10.5278ZM59.6851 2.12695V4.0752H61.04V5.62793H59.6851V9.58301C59.6851 9.87598 59.7412 10.0859 59.8535 10.2129C59.9658 10.3398 60.1807 10.4033 60.498 10.4033C60.7324 10.4033 60.9399 10.3862 61.1206 10.3521V11.9561C60.7056 12.083 60.2783 12.1465 59.8389 12.1465C58.3545 12.1465 57.5977 11.397 57.5684 9.89795V5.62793H56.4111V4.0752H57.5684V2.12695H59.6851ZM64.4531 12H62.3291V4.0752H64.4531V12ZM62.2046 2.02441C62.2046 1.70703 62.3096 1.4458 62.5195 1.24072C62.7344 1.03564 63.0249 0.933105 63.3911 0.933105C63.7524 0.933105 64.0405 1.03564 64.2554 1.24072C64.4702 1.4458 64.5776 1.70703 64.5776 2.02441C64.5776 2.34668 64.4678 2.61035 64.248 2.81543C64.0332 3.02051 63.7476 3.12305 63.3911 3.12305C63.0347 3.12305 62.7466 3.02051 62.5269 2.81543C62.312 2.61035 62.2046 2.34668 62.2046 2.02441ZM69.8511 12.1465C68.689 12.1465 67.7417 11.79 67.0093 11.0771C66.2817 10.3643 65.918 9.41455 65.918 8.22803V8.02295C65.918 7.22705 66.0718 6.5166 66.3794 5.8916C66.687 5.26172 67.1216 4.77832 67.6831 4.44141C68.2495 4.09961 68.894 3.92871 69.6167 3.92871C70.7007 3.92871 71.5527 4.27051 72.1729 4.9541C72.7979 5.6377 73.1104 6.60693 73.1104 7.86182V8.72607H68.064C68.1323 9.24365 68.3374 9.65869 68.6792 9.97119C69.0259 10.2837 69.4629 10.4399 69.9902 10.4399C70.8057 10.4399 71.4429 10.1445 71.9019 9.55371L72.9419 10.7183C72.6245 11.1675 72.1948 11.519 71.6528 11.7729C71.1108 12.022 70.5103 12.1465 69.8511 12.1465ZM69.6094 5.64258C69.1895 5.64258 68.8477 5.78418 68.584 6.06738C68.3252 6.35059 68.1592 6.75586 68.0859 7.2832H71.0303V7.11475C71.0205 6.646 70.8936 6.28467 70.6494 6.03076C70.4053 5.77197 70.0586 5.64258 69.6094 5.64258ZM84.6094 7.64209H80.3906V12H78.1934V1.33594H85.1367V3.11572H80.3906V5.86963H84.6094V7.64209ZM85.7812 7.96436C85.7812 7.17822 85.9326 6.47754 86.2354 5.8623C86.5381 5.24707 86.9727 4.771 87.5391 4.43408C88.1104 4.09717 88.772 3.92871 89.5239 3.92871C90.5933 3.92871 91.4648 4.25586 92.1387 4.91016C92.8174 5.56445 93.1958 6.45312 93.2739 7.57617L93.2886 8.11816C93.2886 9.33398 92.9492 10.3105 92.2705 11.0479C91.5918 11.7803 90.6812 12.1465 89.5386 12.1465C88.396 12.1465 87.4829 11.7803 86.7993 11.0479C86.1206 10.3154 85.7812 9.31934 85.7812 8.05957V7.96436ZM87.8979 8.11816C87.8979 8.87012 88.0396 9.44629 88.3228 9.84668C88.606 10.2422 89.0112 10.4399 89.5386 10.4399C90.0513 10.4399 90.4517 10.2446 90.7397 9.854C91.0278 9.4585 91.1719 8.82861 91.1719 7.96436C91.1719 7.22705 91.0278 6.65576 90.7397 6.25049C90.4517 5.84521 90.0464 5.64258 89.5239 5.64258C89.0063 5.64258 88.606 5.84521 88.3228 6.25049C88.0396 6.65088 87.8979 7.27344 87.8979 8.11816ZM99.0454 6.06006C98.7573 6.021 98.5034 6.00146 98.2837 6.00146C97.4829 6.00146 96.958 6.27246 96.709 6.81445V12H94.5923V4.0752H96.5918L96.6504 5.02002C97.0752 4.29248 97.6636 3.92871 98.4155 3.92871C98.6499 3.92871 98.8696 3.96045 99.0747 4.02393L99.0454 6.06006ZM102.056 4.0752L102.122 4.96143C102.683 4.27295 103.442 3.92871 104.399 3.92871C105.42 3.92871 106.121 4.33154 106.501 5.13721C107.058 4.33154 107.852 3.92871 108.882 3.92871C109.741 3.92871 110.381 4.18018 110.801 4.68311C111.221 5.18115 111.431 5.93311 111.431 6.93896V12H109.307V6.94629C109.307 6.49707 109.219 6.16992 109.043 5.96484C108.867 5.75488 108.557 5.6499 108.113 5.6499C107.478 5.6499 107.039 5.95264 106.794 6.55811L106.802 12H104.685V6.95361C104.685 6.49463 104.595 6.1626 104.414 5.95752C104.233 5.75244 103.926 5.6499 103.491 5.6499C102.891 5.6499 102.456 5.89893 102.188 6.39697V12H100.071V4.0752H102.056ZM117.81 11.1943C117.288 11.8291 116.565 12.1465 115.642 12.1465C114.792 12.1465 114.143 11.9023 113.694 11.4141C113.25 10.9258 113.022 10.2104 113.013 9.26807V4.0752H115.129V9.19482C115.129 10.02 115.505 10.4326 116.257 10.4326C116.975 10.4326 117.468 10.1836 117.737 9.68555V4.0752H119.861V12H117.869L117.81 11.1943ZM123.691 12H121.567V0.75H123.691V12ZM127.676 12H125.552V4.0752H127.676V12ZM125.427 2.02441C125.427 1.70703 125.532 1.4458 125.742 1.24072C125.957 1.03564 126.248 0.933105 126.614 0.933105C126.975 0.933105 127.263 1.03564 127.478 1.24072C127.693 1.4458 127.8 1.70703 127.8 2.02441C127.8 2.34668 127.69 2.61035 127.471 2.81543C127.256 3.02051 126.97 3.12305 126.614 3.12305C126.257 3.12305 125.969 3.02051 125.75 2.81543C125.535 2.61035 125.427 2.34668 125.427 2.02441ZM133.074 12.1465C131.912 12.1465 130.964 11.79 130.232 11.0771C129.504 10.3643 129.141 9.41455 129.141 8.22803V8.02295C129.141 7.22705 129.294 6.5166 129.602 5.8916C129.91 5.26172 130.344 4.77832 130.906 4.44141C131.472 4.09961 132.117 3.92871 132.839 3.92871C133.923 3.92871 134.775 4.27051 135.396 4.9541C136.021 5.6377 136.333 6.60693 136.333 7.86182V8.72607H131.287C131.355 9.24365 131.56 9.65869 131.902 9.97119C132.249 10.2837 132.686 10.4399 133.213 10.4399C134.028 10.4399 134.666 10.1445 135.125 9.55371L136.165 10.7183C135.847 11.1675 135.417 11.519 134.875 11.7729C134.333 12.022 133.733 12.1465 133.074 12.1465ZM132.832 5.64258C132.412 5.64258 132.07 5.78418 131.807 6.06738C131.548 6.35059 131.382 6.75586 131.309 7.2832H134.253V7.11475C134.243 6.646 134.116 6.28467 133.872 6.03076C133.628 5.77197 133.281 5.64258 132.832 5.64258ZM141.995 6.06006C141.707 6.021 141.453 6.00146 141.233 6.00146C140.432 6.00146 139.907 6.27246 139.658 6.81445V12H137.542V4.0752H139.541L139.6 5.02002C140.024 4.29248 140.613 3.92871 141.365 3.92871C141.599 3.92871 141.819 3.96045 142.024 4.02393L141.995 6.06006Z" fill="#00FF5C"/>
</svg>
