<svg width="53" height="12" viewBox="0 0 53 12" fill="none" xmlns="http://www.w3.org/2000/svg">
<path d="M5.89453 5.30273H2.51953V7.58789H6.48047V9H0.761719V0.46875H6.46875V1.89258H2.51953V3.92578H5.89453V5.30273ZM8.98828 2.66016L9.04102 3.36914C9.49023 2.81836 10.0977 2.54297 10.8633 2.54297C11.6797 2.54297 12.2402 2.86523 12.5449 3.50977C12.9902 2.86523 13.625 2.54297 14.4492 2.54297C15.1367 2.54297 15.6484 2.74414 15.9844 3.14648C16.3203 3.54492 16.4883 4.14648 16.4883 4.95117V9H14.7891V4.95703C14.7891 4.59766 14.7188 4.33594 14.5781 4.17188C14.4375 4.00391 14.1895 3.91992 13.834 3.91992C13.3262 3.91992 12.9746 4.16211 12.7793 4.64648L12.7852 9H11.0918V4.96289C11.0918 4.5957 11.0195 4.33008 10.875 4.16602C10.7305 4.00195 10.4844 3.91992 10.1367 3.91992C9.65625 3.91992 9.30859 4.11914 9.09375 4.51758V9H7.40039V2.66016H8.98828ZM23.502 5.88867C23.502 6.86523 23.2793 7.64844 22.834 8.23828C22.3926 8.82422 21.7949 9.11719 21.041 9.11719C20.4004 9.11719 19.8828 8.89453 19.4883 8.44922V11.4375H17.7949V2.66016H19.3652L19.4238 3.28125C19.834 2.78906 20.3691 2.54297 21.0293 2.54297C21.8105 2.54297 22.418 2.83203 22.8516 3.41016C23.2852 3.98828 23.502 4.78516 23.502 5.80078V5.88867ZM21.8086 5.76562C21.8086 5.17578 21.7031 4.7207 21.4922 4.40039C21.2852 4.08008 20.9824 3.91992 20.584 3.91992C20.0527 3.91992 19.6875 4.12305 19.4883 4.5293V7.125C19.6953 7.54297 20.0645 7.75195 20.5957 7.75195C21.4043 7.75195 21.8086 7.08984 21.8086 5.76562ZM26.3438 9H24.6445V0H26.3438V9ZM27.4805 5.77148C27.4805 5.14258 27.6016 4.58203 27.8438 4.08984C28.0859 3.59766 28.4336 3.2168 28.8867 2.94727C29.3438 2.67773 29.873 2.54297 30.4746 2.54297C31.3301 2.54297 32.0273 2.80469 32.5664 3.32812C33.1094 3.85156 33.4121 4.5625 33.4746 5.46094L33.4863 5.89453C33.4863 6.86719 33.2148 7.64844 32.6719 8.23828C32.1289 8.82422 31.4004 9.11719 30.4863 9.11719C29.5723 9.11719 28.8418 8.82422 28.2949 8.23828C27.752 7.65234 27.4805 6.85547 27.4805 5.84766V5.77148ZM29.1738 5.89453C29.1738 6.49609 29.2871 6.95703 29.5137 7.27734C29.7402 7.59375 30.0645 7.75195 30.4863 7.75195C30.8965 7.75195 31.2168 7.5957 31.4473 7.2832C31.6777 6.9668 31.793 6.46289 31.793 5.77148C31.793 5.18164 31.6777 4.72461 31.4473 4.40039C31.2168 4.07617 30.8926 3.91406 30.4746 3.91406C30.0605 3.91406 29.7402 4.07617 29.5137 4.40039C29.2871 4.7207 29.1738 5.21875 29.1738 5.89453ZM36.8027 6.60352L37.9746 2.66016H39.791L37.2422 9.98438L37.1016 10.3184C36.7227 11.1465 36.0977 11.5605 35.2266 11.5605C34.9805 11.5605 34.7305 11.5234 34.4766 11.4492V10.166L34.7344 10.1719C35.0547 10.1719 35.293 10.123 35.4492 10.0254C35.6094 9.92773 35.7344 9.76562 35.8242 9.53906L36.0234 9.01758L33.8027 2.66016H35.625L36.8027 6.60352ZM43.2949 9.11719C42.3652 9.11719 41.6074 8.83203 41.0215 8.26172C40.4395 7.69141 40.1484 6.93164 40.1484 5.98242V5.81836C40.1484 5.18164 40.2715 4.61328 40.5176 4.11328C40.7637 3.60938 41.1113 3.22266 41.5605 2.95312C42.0137 2.67969 42.5293 2.54297 43.1074 2.54297C43.9746 2.54297 44.6562 2.81641 45.1523 3.36328C45.6523 3.91016 45.9023 4.68555 45.9023 5.68945V6.38086H41.8652C41.9199 6.79492 42.084 7.12695 42.3574 7.37695C42.6348 7.62695 42.9844 7.75195 43.4062 7.75195C44.0586 7.75195 44.5684 7.51562 44.9355 7.04297L45.7676 7.97461C45.5137 8.33398 45.1699 8.61523 44.7363 8.81836C44.3027 9.01758 43.8223 9.11719 43.2949 9.11719ZM43.1016 3.91406C42.7656 3.91406 42.4922 4.02734 42.2812 4.25391C42.0742 4.48047 41.9414 4.80469 41.8828 5.22656H44.2383V5.0918C44.2305 4.7168 44.1289 4.42773 43.9336 4.22461C43.7383 4.01758 43.4609 3.91406 43.1016 3.91406ZM49.7871 9.11719C48.8574 9.11719 48.0996 8.83203 47.5137 8.26172C46.9316 7.69141 46.6406 6.93164 46.6406 5.98242V5.81836C46.6406 5.18164 46.7637 4.61328 47.0098 4.11328C47.2559 3.60938 47.6035 3.22266 48.0527 2.95312C48.5059 2.67969 49.0215 2.54297 49.5996 2.54297C50.4668 2.54297 51.1484 2.81641 51.6445 3.36328C52.1445 3.91016 52.3945 4.68555 52.3945 5.68945V6.38086H48.3574C48.4121 6.79492 48.5762 7.12695 48.8496 7.37695C49.127 7.62695 49.4766 7.75195 49.8984 7.75195C50.5508 7.75195 51.0605 7.51562 51.4277 7.04297L52.2598 7.97461C52.0059 8.33398 51.6621 8.61523 51.2285 8.81836C50.7949 9.01758 50.3145 9.11719 49.7871 9.11719ZM49.5938 3.91406C49.2578 3.91406 48.9844 4.02734 48.7734 4.25391C48.5664 4.48047 48.4336 4.80469 48.375 5.22656H50.7305V5.0918C50.7227 4.7168 50.6211 4.42773 50.4258 4.22461C50.2305 4.01758 49.9531 3.91406 49.5938 3.91406Z" fill="#00FF5C"/>
</svg>
