<svg width="53" height="10" viewBox="0 0 53 10" fill="none" xmlns="http://www.w3.org/2000/svg">
<path d="M7.45898 6.1582C7.39258 7.07617 7.05273 7.79883 6.43945 8.32617C5.83008 8.85352 5.02539 9.11719 4.02539 9.11719C2.93164 9.11719 2.07031 8.75 1.44141 8.01562C0.816406 7.27734 0.503906 6.26562 0.503906 4.98047V4.45898C0.503906 3.63867 0.648438 2.91602 0.9375 2.29102C1.22656 1.66602 1.63867 1.1875 2.17383 0.855469C2.71289 0.519531 3.33789 0.351562 4.04883 0.351562C5.0332 0.351562 5.82617 0.615234 6.42773 1.14258C7.0293 1.66992 7.37695 2.41016 7.4707 3.36328H5.71289C5.66992 2.8125 5.51562 2.41406 5.25 2.16797C4.98828 1.91797 4.58789 1.79297 4.04883 1.79297C3.46289 1.79297 3.02344 2.00391 2.73047 2.42578C2.44141 2.84375 2.29297 3.49414 2.28516 4.37695V5.02148C2.28516 5.94336 2.42383 6.61719 2.70117 7.04297C2.98242 7.46875 3.42383 7.68164 4.02539 7.68164C4.56836 7.68164 4.97266 7.55859 5.23828 7.3125C5.50781 7.0625 5.66211 6.67773 5.70117 6.1582H7.45898ZM12.2988 8.35547C11.8809 8.86328 11.3027 9.11719 10.5645 9.11719C9.88477 9.11719 9.36523 8.92188 9.00586 8.53125C8.65039 8.14062 8.46875 7.56836 8.46094 6.81445V2.66016H10.1543V6.75586C10.1543 7.41602 10.4551 7.74609 11.0566 7.74609C11.6309 7.74609 12.0254 7.54688 12.2402 7.14844V2.66016H13.9395V9H12.3457L12.2988 8.35547ZM18.6504 7.24805C18.6504 7.04102 18.5469 6.87891 18.3398 6.76172C18.1367 6.64062 17.8086 6.5332 17.3555 6.43945C15.8477 6.12305 15.0938 5.48242 15.0938 4.51758C15.0938 3.95508 15.3262 3.48633 15.791 3.11133C16.2598 2.73242 16.8711 2.54297 17.625 2.54297C18.4297 2.54297 19.0723 2.73242 19.5527 3.11133C20.0371 3.49023 20.2793 3.98242 20.2793 4.58789H18.5859C18.5859 4.3457 18.5078 4.14648 18.3516 3.99023C18.1953 3.83008 17.9512 3.75 17.6191 3.75C17.334 3.75 17.1133 3.81445 16.957 3.94336C16.8008 4.07227 16.7227 4.23633 16.7227 4.43555C16.7227 4.62305 16.8105 4.77539 16.9863 4.89258C17.166 5.00586 17.4668 5.10547 17.8887 5.19141C18.3105 5.27344 18.666 5.36719 18.9551 5.47266C19.8496 5.80078 20.2969 6.36914 20.2969 7.17773C20.2969 7.75586 20.0488 8.22461 19.5527 8.58398C19.0566 8.93945 18.416 9.11719 17.6309 9.11719C17.0996 9.11719 16.627 9.02344 16.2129 8.83594C15.8027 8.64453 15.4805 8.38477 15.2461 8.05664C15.0117 7.72461 14.8945 7.36719 14.8945 6.98438H16.5C16.5156 7.28516 16.627 7.51562 16.834 7.67578C17.041 7.83594 17.3184 7.91602 17.666 7.91602C17.9902 7.91602 18.2344 7.85547 18.3984 7.73438C18.5664 7.60938 18.6504 7.44727 18.6504 7.24805ZM23.4199 1.10156V2.66016H24.5039V3.90234H23.4199V7.06641C23.4199 7.30078 23.4648 7.46875 23.5547 7.57031C23.6445 7.67188 23.8164 7.72266 24.0703 7.72266C24.2578 7.72266 24.4238 7.70898 24.5684 7.68164V8.96484C24.2363 9.06641 23.8945 9.11719 23.543 9.11719C22.3555 9.11719 21.75 8.51758 21.7266 7.31836V3.90234H20.8008V2.66016H21.7266V1.10156H23.4199ZM25.0078 5.77148C25.0078 5.14258 25.1289 4.58203 25.3711 4.08984C25.6133 3.59766 25.9609 3.2168 26.4141 2.94727C26.8711 2.67773 27.4004 2.54297 28.002 2.54297C28.8574 2.54297 29.5547 2.80469 30.0938 3.32812C30.6367 3.85156 30.9395 4.5625 31.002 5.46094L31.0137 5.89453C31.0137 6.86719 30.7422 7.64844 30.1992 8.23828C29.6562 8.82422 28.9277 9.11719 28.0137 9.11719C27.0996 9.11719 26.3691 8.82422 25.8223 8.23828C25.2793 7.65234 25.0078 6.85547 25.0078 5.84766V5.77148ZM26.7012 5.89453C26.7012 6.49609 26.8145 6.95703 27.041 7.27734C27.2676 7.59375 27.5918 7.75195 28.0137 7.75195C28.4238 7.75195 28.7441 7.5957 28.9746 7.2832C29.2051 6.9668 29.3203 6.46289 29.3203 5.77148C29.3203 5.18164 29.2051 4.72461 28.9746 4.40039C28.7441 4.07617 28.4199 3.91406 28.002 3.91406C27.5879 3.91406 27.2676 4.07617 27.041 4.40039C26.8145 4.7207 26.7012 5.21875 26.7012 5.89453ZM33.6445 2.66016L33.6973 3.36914C34.1465 2.81836 34.7539 2.54297 35.5195 2.54297C36.3359 2.54297 36.8965 2.86523 37.2012 3.50977C37.6465 2.86523 38.2812 2.54297 39.1055 2.54297C39.793 2.54297 40.3047 2.74414 40.6406 3.14648C40.9766 3.54492 41.1445 4.14648 41.1445 4.95117V9H39.4453V4.95703C39.4453 4.59766 39.375 4.33594 39.2344 4.17188C39.0938 4.00391 38.8457 3.91992 38.4902 3.91992C37.9824 3.91992 37.6309 4.16211 37.4355 4.64648L37.4414 9H35.748V4.96289C35.748 4.5957 35.6758 4.33008 35.5312 4.16602C35.3867 4.00195 35.1406 3.91992 34.793 3.91992C34.3125 3.91992 33.9648 4.11914 33.75 4.51758V9H32.0566V2.66016H33.6445ZM45.3691 9.11719C44.4395 9.11719 43.6816 8.83203 43.0957 8.26172C42.5137 7.69141 42.2227 6.93164 42.2227 5.98242V5.81836C42.2227 5.18164 42.3457 4.61328 42.5918 4.11328C42.8379 3.60938 43.1855 3.22266 43.6348 2.95312C44.0879 2.67969 44.6035 2.54297 45.1816 2.54297C46.0488 2.54297 46.7305 2.81641 47.2266 3.36328C47.7266 3.91016 47.9766 4.68555 47.9766 5.68945V6.38086H43.9395C43.9941 6.79492 44.1582 7.12695 44.4316 7.37695C44.709 7.62695 45.0586 7.75195 45.4805 7.75195C46.1328 7.75195 46.6426 7.51562 47.0098 7.04297L47.8418 7.97461C47.5879 8.33398 47.2441 8.61523 46.8105 8.81836C46.377 9.01758 45.8965 9.11719 45.3691 9.11719ZM45.1758 3.91406C44.8398 3.91406 44.5664 4.02734 44.3555 4.25391C44.1484 4.48047 44.0156 4.80469 43.957 5.22656H46.3125V5.0918C46.3047 4.7168 46.2031 4.42773 46.0078 4.22461C45.8125 4.01758 45.5352 3.91406 45.1758 3.91406ZM52.5059 4.24805C52.2754 4.2168 52.0723 4.20117 51.8965 4.20117C51.2559 4.20117 50.8359 4.41797 50.6367 4.85156V9H48.9434V2.66016H50.543L50.5898 3.41602C50.9297 2.83398 51.4004 2.54297 52.002 2.54297C52.1895 2.54297 52.3652 2.56836 52.5293 2.61914L52.5059 4.24805Z" fill="#00FF5C"/>
</svg>
